<svg width="916" height="228" viewBox="0 0 916 228" fill="none" xmlns="http://www.w3.org/2000/svg">
<path d="M240.286 125.199C255.226 105.862 269.708 87.0146 284.376 68.1806C289.849 61.1526 294.286 54.0066 301.844 47.1826C311.605 38.3648 333.174 36.6422 358.085 38.5184C425.245 43.5763 453.46 59.0999 478.144 76.1292C484.398 80.4423 492.149 84.5615 499.517 88.7217C509.935 94.6108 512.029 94.6337 525.911 89.0642C550.238 79.3041 560.587 67.6522 573.686 56.3913C591.743 40.867 605.446 24.8834 626.807 9.71098C635.539 3.50861 658.791 -1.25087 673.616 0.293348C688.964 1.95282 703.83 3.99454 718.062 6.39749C757.312 12.8535 779.905 23.8216 800.11 35.2372C837.019 56.0898 876.313 76.5818 906.444 98.4794C910.432 101.377 917.44 104.266 914.797 107.418C912.204 110.51 909.84 115.855 892.603 110.664C889.882 109.845 887.055 109.205 882.813 109.601C854.249 112.264 843.449 105.94 831.644 100.247C797.119 83.6097 762.813 66.9335 728.226 50.3095C724.87 48.6969 722.759 45.9094 714.65 46.5286C708.845 46.9724 709.85 49.6114 707.546 51.2364C690.823 63.0307 687.085 75.9409 672.942 87.9577C665.168 94.5641 656.849 101.081 644.102 106.997C635.923 110.789 628.073 114.563 611.356 115.468C606.162 115.787 601.542 116.676 598.38 117.962C582.902 125.138 560.749 122.479 539.988 121.842C482.828 120.089 439.545 111.517 407.991 97.1863C406.883 96.684 404.425 96.454 400.952 95.7757C396.306 100.259 389.225 103.894 386.683 108.721C377.581 126.012 369.698 143.436 349.228 160.049C341.15 166.603 325.68 170.532 306.618 172.743C290.2 174.646 273.584 170.403 255.216 170.894C219.525 171.848 198.547 164.44 179.719 156.679C170.94 153.06 163.586 149.125 155.497 145.292C133.178 151.871 134.698 161 127.841 168.869C117.617 180.597 103.651 191.803 89.1617 203.008C79.8649 210.197 75.946 217.928 59.5697 224.428C46.0355 229.802 28.7447 227.202 14.9762 226.914C5.45744 226.716 -4.11682 222.409 1.84679 217.243C43.4729 181.186 61.9083 143.736 72.6313 105.852C74.7109 98.5061 89.3816 92.4865 104.856 93.1654C119.845 93.8231 134.67 95.3344 148.876 97.0073C184.222 101.172 205.888 109.737 224.401 119.24C228.055 121.128 229.358 123.559 240.286 125.199Z" fill="url(#paint0_linear)" fill-opacity="0.5"/>
<defs>
<linearGradient id="paint0_linear" x1="457.689" y1="0" x2="457.689" y2="227.795" gradientUnits="userSpaceOnUse">
<stop stop-color="#EC8E37"/>
<stop offset="1" stop-color="#EC3750"/>
</linearGradient>
</defs>
</svg>
