<svg width="37" height="41" viewBox="0 0 37 41" fill="none" xmlns="http://www.w3.org/2000/svg">
<path d="M22.8333 16.5833L18.6667 18.6667M18.6667 18.6667L14.5 16.5833M18.6667 18.6667V23.875M35.3333 10.3333L31.1667 12.4167M35.3333 10.3333L31.1667 8.25M35.3333 10.3333V15.5417M22.8333 4.08333L18.6667 2L14.5 4.08333M2 10.3333L6.16667 8.25M2 10.3333L6.16667 12.4167M2 10.3333V15.5417M18.6667 39.5L14.5 37.4167M18.6667 39.5L22.8333 37.4167M18.6667 39.5V34.2917M6.16667 33.25L2 31.1667V25.9583M31.1667 33.25L35.3333 31.1667V25.9583" stroke="black" stroke-width="3" stroke-linecap="round" stroke-linejoin="round"/>
</svg>
